# xmcd
#
# Track frame offsets:
#	183
#	21008
#	42045
#	54010
#	81250
#	100303
#	128618
#	150040
#	158355
#
# Disc length: 2312 seconds
#
# Revision: 1
# Processed by: cddbd v1.5.1PL0 Copyright (c) Steve Scherf et al.
# Submitted via: audiograbber 1.83.01
#
DISCID=4e090609
DTITLE=Memphis Sheiks - Slow-Cooked Pig Meat
DYEAR=1994
DGENRE=Blues
TTITLE0=B&O Blues
TTITLE1=Matrimony Blues
TTITLE2=New Atlanta Rag
TTITLE3=Ramblin' On My Mind
TTITLE4=After The Superbowl
TTITLE5=Soda Water John
TTITLE6=Slow-Cooked Pig Meat
TTITLE7=I'M Gone
TTITLE8=When I Hear My Old Used-To-Be's Name
EXTD=
EXTT0=
EXTT1=
EXTT2=
EXTT3=
EXTT4=
EXTT5=
EXTT6=
EXTT7=
EXTT8=
PLAYORDER=
